<svg width="15" height="13" viewBox="0 0 15 13" fill="none" xmlns="http://www.w3.org/2000/svg">
<g id="health 1" clip-path="url(#clip0_1_576)">
<path id="Vector" d="M10.7521 0.672119C10.4499 0.672119 10.1511 0.709272 9.86607 0.780199C9.25481 0.932187 8.69162 1.24629 8.23489 1.69888L7.63049 2.29332C7.56181 2.36087 7.44849 2.36087 7.37637 2.29332L6.77198 1.69888C6.25343 1.18888 5.60096 0.854504 4.89354 0.729537C4.68407 0.692384 4.46772 0.672119 4.25137 0.672119C3.30014 0.672119 2.40385 1.03689 1.73077 1.69888C1.01992 2.39464 0.649039 3.33697 0.690247 4.32995C0.728022 5.21824 1.14011 6.0491 1.76854 6.68745L3.23832 6.69758L4.31662 4.85684C4.43338 4.65757 4.64973 4.54273 4.88324 4.55624C5.11676 4.56975 5.31593 4.71161 5.40865 4.92101L6.57624 7.65341L7.88805 4.07326C7.99451 3.7828 8.27953 3.60717 8.59203 3.62743C8.90453 3.65107 9.15522 3.87399 9.2136 4.17796L9.72184 6.85295H13.0769L13.1971 6.73473C13.853 6.08963 14.2823 5.2385 14.3201 4.32995C14.3613 3.33697 13.9904 2.39802 13.2795 1.69888C12.6065 1.03689 11.7136 0.672119 10.7589 0.672119H10.7521Z" fill="#00C389"/>
<path id="Vector_2" d="M8.76717 7.40008L8.42376 5.58636L7.18407 8.97062C7.09478 9.2138 6.86126 9.37592 6.60028 9.37592C6.34959 9.37592 6.12637 9.22731 6.02679 9.00102L4.78022 6.08623L3.99382 7.4271C3.89423 7.60273 3.70192 7.71081 3.49245 7.71081H2.79533L7.49313 12.3279L12.0295 7.86618H9.33036C9.0522 7.86618 8.81181 7.67028 8.7603 7.40008H8.76717Z" fill="#00C389"/>
</g>
<defs>
<clipPath id="clip0_1_576">
<rect width="15" height="13" fill="white"/>
</clipPath>
</defs>
</svg>
