<svg width="14" height="15" viewBox="0 0 14 15" fill="none" xmlns="http://www.w3.org/2000/svg">
<g id="logout 2" clip-path="url(#clip0_3_129)">
<g id="icon">
<path id="Vector" d="M10.7059 15H7.41176C6.95881 15 6.58823 14.625 6.58823 14.1667C6.58823 13.7083 6.95881 13.3333 7.41176 13.3333H10.7059C11.6118 13.3333 12.3529 12.5833 12.3529 11.6667V3.33333C12.3529 2.41667 11.6118 1.66667 10.7059 1.66667H7.41176C6.95881 1.66667 6.58823 1.29167 6.58823 0.833333C6.58823 0.375 6.95881 0 7.41176 0H10.7059C12.5259 0 14 1.49167 14 3.33333V11.6667C14 13.5083 12.5259 15 10.7059 15Z" fill="#A4A4A4"/>
<path id="Vector_2" d="M7.41177 10.8334C7.19765 10.8334 6.99177 10.75 6.82706 10.5917C6.50589 10.2667 6.50589 9.74169 6.82706 9.41669L8.71295 7.50836L6.82706 5.60002C6.50589 5.27502 6.50589 4.75002 6.82706 4.42502C7.14824 4.10002 7.66706 4.10002 7.98824 4.42502L10.4588 6.92502C10.78 7.25003 10.78 7.77502 10.4588 8.10002L7.98824 10.6C7.82353 10.7667 7.61765 10.8417 7.40353 10.8417L7.41177 10.8334Z" fill="#A4A4A4"/>
<path id="Vector_3" d="M8.23529 8.32499H0.823529C0.370588 8.32499 0 7.94999 0 7.49166C0 7.03333 0.370588 6.65833 0.823529 6.65833H8.23529C8.68824 6.65833 9.05882 7.03333 9.05882 7.49166C9.05882 7.94999 8.68824 8.32499 8.23529 8.32499Z" fill="#A4A4A4"/>
</g>
</g>
<defs>
<clipPath id="clip0_3_129">
<rect width="14" height="15" fill="white"/>
</clipPath>
</defs>
</svg>
