<svg width="16" height="16" viewBox="0 0 16 16" fill="none" xmlns="http://www.w3.org/2000/svg">
<g id="Notifiche">
<g id="Group 625974">
<path id="Vector" d="M13.9999 8.6668V6C13.9999 3.7494 12.4061 1.871 10.2865 1.4316L9.99991 0H8.66651L8.38011 1.431C7.19791 1.6766 6.19251 2.3782 5.52291 3.3334H7.35331C7.90851 2.92 8.58971 2.6668 9.33311 2.6668C11.1709 2.6668 12.6663 4.1622 12.6663 6V8.6668C12.6663 10.37 13.2125 11.9878 14.2243 13.3336H4.44211C4.75691 12.914 5.02131 12.4664 5.24371 12H3.72571C3.43031 12.4872 3.07731 12.9376 2.66671 13.3336V14.6668H7.99991L8.44271 15.5528C8.56631 15.7988 8.89191 16 9.16651 16H9.49991C9.77471 16 10.1001 15.7988 10.2239 15.5528L10.6665 14.6668H15.9999V13.3336C14.7629 12.1406 13.9999 10.491 13.9999 8.6668Z" fill="#A4A4A4"/>
<path id="Vector_2" d="M9.3334 4.66681H1.3332C0.6004 4.66681 0 5.26701 0 6.00001V9.33361C0 10.0664 0.6004 10.6668 1.3332 10.6668H7L8.6666 12H9.3334V10.6668C10.0664 10.6668 10.6666 10.0664 10.6666 9.33361V6.00001C10.6666 5.26701 10.0664 4.66681 9.3334 4.66681ZM1.3332 6.00001H6.6668V7.00001H1.3332V6.00001ZM3.3332 9.33361H1.3332V8.33361H3.3332V9.33361ZM9.3334 9.33361H4.6668V8.33361H9.3334V9.33361Z" fill="#A4A4A4"/>
</g>
</g>
</svg>
