<svg width="18" height="19" viewBox="0 0 18 19" fill="none" xmlns="http://www.w3.org/2000/svg">
<g id="Vector">
<g id="icon">
<path id="Vector_2" d="M6.21431 10.5H3.20779C2.10335 10.5 1.20052 9.56659 1.20052 8.42472V5.31628C1.20052 4.1744 2.10335 3.24097 3.20779 3.24097H6.21431C7.31874 3.24097 8.22158 4.1744 8.22158 5.31628V8.42472C8.22158 9.56659 7.31874 10.5 6.21431 10.5ZM3.20779 5.06253C3.06754 5.06253 2.95359 5.18034 2.95359 5.32534V8.43378C2.95359 8.56972 3.06754 8.69659 3.20779 8.69659H6.21431C6.35455 8.69659 6.4685 8.57878 6.4685 8.43378V5.32534C6.4685 5.1894 6.35455 5.06253 6.21431 5.06253H3.20779Z" fill="#003087"/>
<path id="Vector_3" d="M14.1031 10.5H11.0966C9.99218 10.5 9.08935 9.56659 9.08935 8.42472V5.31628C9.08935 4.1744 9.99218 3.24097 11.0966 3.24097H14.1031C15.2076 3.24097 16.1104 4.1744 16.1104 5.31628V8.42472C16.1104 9.56659 15.2076 10.5 14.1031 10.5ZM11.0966 5.06253C10.9564 5.06253 10.8424 5.18034 10.8424 5.32534V8.43378C10.8424 8.56972 10.9564 8.69659 11.0966 8.69659H14.1031C14.2434 8.69659 14.3573 8.57878 14.3573 8.43378V5.32534C14.3573 5.1894 14.2434 5.06253 14.1031 5.06253H11.0966Z" fill="#003087"/>
<path id="Vector_4" d="M6.21431 18.6563H3.20779C2.10335 18.6563 1.20052 17.7228 1.20052 16.581V13.4725C1.20052 12.3307 2.10335 11.3972 3.20779 11.3972H6.21431C7.31874 11.3972 8.22158 12.3307 8.22158 13.4725V16.581C8.22158 17.7228 7.31874 18.6563 6.21431 18.6563ZM3.20779 13.2188C3.06754 13.2188 2.95359 13.3366 2.95359 13.4816V16.59C2.95359 16.726 3.06754 16.8528 3.20779 16.8528H6.21431C6.35455 16.8528 6.4685 16.735 6.4685 16.59V13.4816C6.4685 13.3457 6.35455 13.2188 6.21431 13.2188H3.20779Z" fill="#003087"/>
<path id="Vector_5" d="M14.1031 18.6563H11.0966C9.99218 18.6563 9.08935 17.7228 9.08935 16.581V13.4725C9.08935 12.3307 9.99218 11.3972 11.0966 11.3972H14.1031C15.2076 11.3972 16.1104 12.3307 16.1104 13.4725V16.581C16.1104 17.7228 15.2076 18.6563 14.1031 18.6563ZM11.0966 13.2188C10.9564 13.2188 10.8424 13.3366 10.8424 13.4816V16.59C10.8424 16.726 10.9564 16.8528 11.0966 16.8528H14.1031C14.2434 16.8528 14.3573 16.735 14.3573 16.59V13.4816C14.3573 13.3457 14.2434 13.2188 14.1031 13.2188H11.0966Z" fill="#003087"/>
</g>
</g>
</svg>
