<svg width="71" height="44" viewBox="0 0 71 44" fill="none" xmlns="http://www.w3.org/2000/svg">
<g id="we care logo">
<g id="Group">
<path id="Vector" d="M3.39713 27.3882L0.0244047 15.9701L0 15.8757C0 15.7209 0.0854164 15.641 0.25869 15.641H2.49904C2.67231 15.641 2.78213 15.7184 2.8285 15.8757L4.78576 23.6903C4.8004 23.7363 4.82481 23.7605 4.85653 23.7605C4.88826 23.7605 4.91266 23.7363 4.92731 23.6903L6.97974 15.8757C7.02611 15.7209 7.13593 15.641 7.3092 15.641H9.26646C9.43973 15.641 9.54956 15.7184 9.59593 15.8757L11.6947 23.6903C11.7094 23.7363 11.7338 23.7605 11.7655 23.7605C11.7972 23.7605 11.8216 23.7363 11.8363 23.6903L13.9351 15.8757C13.9814 15.7209 14.0913 15.641 14.2645 15.641L16.4829 15.687C16.5781 15.687 16.644 15.7136 16.683 15.7693C16.7221 15.8249 16.7343 15.8975 16.7172 15.9919L13.3201 27.3858C13.2737 27.5431 13.1712 27.6205 13.0126 27.6205H10.7478C10.5746 27.6205 10.4647 27.5431 10.4184 27.3858L8.34152 20.2513C8.32444 20.2053 8.30248 20.1811 8.27075 20.1811C8.23902 20.1811 8.21462 20.2053 8.19998 20.2513L6.28909 27.3858C6.24272 27.5431 6.1329 27.6205 5.95963 27.6205H3.71927C3.546 27.6205 3.43618 27.5431 3.38981 27.3858L3.39713 27.3882Z" fill="#DF1995"/>
<path id="Vector_2" d="M28.4533 21.609L28.4289 22.3351C28.4289 22.5214 28.3337 22.6158 28.1458 22.6158H20.7609C20.6828 22.6158 20.6438 22.6545 20.6438 22.732C20.6902 23.2475 20.7609 23.5984 20.8561 23.7847C21.2344 24.9077 22.1544 25.4764 23.6163 25.4933C24.6852 25.4933 25.5345 25.0577 26.1641 24.184C26.2276 24.0897 26.3057 24.0437 26.4009 24.0437C26.4643 24.0437 26.518 24.0679 26.5668 24.1139L28.0286 25.307C28.1702 25.4159 28.1946 25.5417 28.0994 25.6821C27.6113 26.3694 26.9622 26.8994 26.1519 27.2721C25.3417 27.6472 24.4412 27.8336 23.4503 27.8336C22.2228 27.8336 21.1807 27.5601 20.3241 27.0156C19.4675 26.471 18.8403 25.7063 18.4474 24.7237C18.0862 23.8815 17.9056 22.7126 17.9056 21.2146C17.9056 20.3094 18.0008 19.5762 18.1887 19.0147C18.5035 17.9232 19.0965 17.0617 19.9702 16.43C20.8439 15.7984 21.8933 15.4813 23.1209 15.4813C26.2203 15.4813 27.9652 17.0883 28.3581 20.3022C28.4216 20.6918 28.4533 21.1299 28.4533 21.6115V21.609ZM21.6712 18.2524C21.2856 18.5403 21.0147 18.9421 20.8561 19.4576C20.7609 19.7238 20.6975 20.065 20.6682 20.4861C20.6365 20.5636 20.6682 20.6023 20.7634 20.6023H25.554C25.6321 20.6023 25.6711 20.5636 25.6711 20.4861C25.6394 20.0965 25.5931 19.7988 25.5296 19.5979C25.3881 19.0365 25.1098 18.6008 24.6925 18.2887C24.2752 17.9765 23.7529 17.8216 23.1233 17.8216C22.54 17.8216 22.0568 17.9668 21.6737 18.2548L21.6712 18.2524Z" fill="#DF1995"/>
</g>
<g id="Group_2">
<path id="Vector_3" d="M36.9951 16.9191C36.6412 16.7691 36.3044 16.694 35.9871 16.694C35.1769 16.694 34.4667 16.9554 33.8591 17.4806C33.2514 18.0033 32.7853 18.7318 32.4607 19.6659C32.1361 20.5977 31.9726 21.6746 31.9726 22.8944C31.9726 24.1141 32.1922 25.0604 32.6339 25.692C33.0757 26.3237 33.6931 26.6383 34.4887 26.6383C35.0817 26.6383 35.5991 26.5318 36.0408 26.3164C36.4826 26.101 36.9853 25.7719 37.549 25.3266L37.8956 26.0357C37.5198 26.4955 37.0024 26.9142 36.3435 27.2941C35.6845 27.6741 34.9011 27.8653 33.9884 27.8653C32.7877 27.8653 31.8506 27.4393 31.1794 26.585C30.5059 25.7307 30.1691 24.5594 30.1691 23.0662C30.1691 21.9191 30.4156 20.7526 30.9061 19.5691C31.3966 18.3857 32.1141 17.3983 33.0537 16.6093C33.9933 15.8204 35.1013 15.4259 36.3752 15.4259C36.7803 15.4259 37.2025 15.4719 37.6442 15.5663C38.0859 15.6607 38.4496 15.7841 38.74 15.9438L38.2421 17.6645L38.003 17.4927C37.6857 17.2628 37.3489 17.074 36.9926 16.9215L36.9951 16.9191Z" fill="#003087"/>
<path id="Vector_4" d="M48.485 26.0547C48.485 26.2847 48.5314 26.4492 48.6265 26.5484C48.7217 26.6501 48.8169 26.6985 48.9194 26.6985C49.0634 26.6985 49.2049 26.6525 49.344 26.5581C49.4807 26.4637 49.6589 26.3113 49.8761 26.0959L50.1787 26.5702C50.1201 26.6864 49.9859 26.8461 49.776 27.0542C49.5661 27.2624 49.3099 27.4487 49.0048 27.6133C48.6998 27.7779 48.3825 27.8601 48.0506 27.8601C47.1525 27.8601 46.7352 27.3858 46.7913 26.4395L46.9207 25.5562C46.4277 26.1879 45.8542 26.73 45.1952 27.1801C44.5363 27.6327 43.853 27.8577 43.1452 27.8577C42.0031 27.8577 41.1514 27.4487 40.595 26.6307C40.0385 25.8127 39.7603 24.7092 39.7603 23.3176C39.7603 22.1559 40.0361 20.9604 40.5852 19.7358C41.1343 18.5088 41.9275 17.4827 42.9622 16.6575C43.997 15.8322 45.2001 15.4208 46.5741 15.4208C46.8767 15.4208 47.233 15.4571 47.6382 15.5297C48.0433 15.6023 48.4045 15.687 48.7242 15.7886L49.9175 15.445L48.507 25.7958C48.4923 25.8684 48.485 25.9531 48.485 26.0547ZM46.3374 16.4784C45.3392 16.4784 44.4777 16.8196 43.7554 17.4997C43.0305 18.1821 42.4814 19.0388 42.1056 20.0722C41.7298 21.1056 41.5419 22.1245 41.5419 23.1288C41.5419 24.2348 41.7054 25.0915 42.03 25.7014C42.3545 26.3113 42.85 26.6162 43.5162 26.6162C44.1824 26.6162 44.8145 26.3621 45.4588 25.8515C46.1031 25.3432 46.6424 24.7793 47.0744 24.1622L48.0286 16.9527C47.5649 16.6381 47.0012 16.4784 46.3349 16.4784H46.3374Z" fill="#003087"/>
<path id="Vector_5" d="M56.4505 17.1125C56.8557 16.6454 57.3364 16.2509 57.8929 15.929C58.4493 15.6072 59.0399 15.445 59.6622 15.445C60.0087 15.445 60.2406 15.4886 60.3577 15.5733L59.9673 17.4464C59.7647 17.3303 59.4328 17.2746 58.9691 17.2746C58.3029 17.2746 57.6317 17.5263 56.9508 18.0273C56.2699 18.5307 55.7428 19.2325 55.367 20.1376L54.4347 27.6472H52.741L54.1077 17.1875L53.0022 16.6914L53.1535 15.9169L55.4329 15.4644L55.8453 15.658L55.694 17.5723L55.5647 18.4556C55.7526 18.0248 56.0479 17.5771 56.4554 17.11L56.4505 17.1125Z" fill="#003087"/>
<path id="Vector_6" d="M67.9623 27.1511C67.1447 27.6254 66.2588 27.8601 65.3046 27.8601C64.3504 27.8601 63.5621 27.6448 62.9398 27.214C62.3175 26.7832 61.8587 26.2193 61.5609 25.5247C61.2632 24.8277 61.1168 24.0727 61.1168 23.2547C61.1168 21.9067 61.3925 20.6289 61.9416 19.4236C62.4907 18.2184 63.24 17.2504 64.1869 16.5195C65.1338 15.7886 66.1881 15.4208 67.3448 15.4208C68.3283 15.4208 69.0727 15.6652 69.5803 16.1517C70.0855 16.6405 70.3393 17.2697 70.3393 18.0466C70.3393 19.0655 69.9049 19.9222 69.0385 20.6192C68.1697 21.3162 67.1496 21.8389 65.9782 22.1898C64.8067 22.5407 63.794 22.7247 62.9398 22.7392C62.9251 22.8408 62.9178 23.0054 62.9178 23.2353C62.9178 24.1525 63.135 24.9488 63.5694 25.624C64.0038 26.2992 64.6676 26.6356 65.5657 26.6356C66.1881 26.6356 66.8323 26.4928 67.4961 26.2048C68.1624 25.9168 68.7774 25.4933 69.3411 24.9342L69.7536 25.6651C69.3777 26.1806 68.7798 26.6767 67.9623 27.1511ZM64.9776 17.2722C64.3992 17.8312 63.9379 18.5234 63.5987 19.3486C63.2595 20.1739 63.052 20.9798 62.9813 21.7687C63.8062 21.7397 64.6554 21.58 65.5316 21.2847C66.4077 20.9919 67.1398 20.578 67.7353 20.048C68.3283 19.518 68.6261 18.9009 68.6261 18.1966C68.6114 17.6231 68.4601 17.185 68.1697 16.8849C67.8793 16.5849 67.4742 16.4324 66.9544 16.4324C66.2173 16.4324 65.5584 16.7131 64.98 17.2722H64.9776Z" fill="#003087"/>
</g>
<path id="Vector_7" d="M68.2185 12.1465C67.9061 12.1465 67.5986 11.9844 67.4302 11.6964C63.8696 5.59288 57.2608 1.80298 50.1834 1.80298C43.1061 1.80298 36.4973 5.59288 32.9366 11.6964C32.6853 12.1272 32.1289 12.2748 31.6944 12.0255C31.26 11.7763 31.1112 11.2245 31.3625 10.7937C35.2502 4.13597 42.4618 0 50.1859 0C57.91 0 65.1216 4.13597 69.0043 10.7937C69.2557 11.2245 69.1068 11.7763 68.6724 12.0255C68.5284 12.1078 68.3723 12.1465 68.2185 12.1465Z" fill="#003087"/>
<path id="Vector_8" d="M50.1859 43.1095C42.4619 43.1095 35.2503 38.9735 31.3675 32.3158C31.1161 31.885 31.265 31.3332 31.6994 31.084C32.1338 30.8347 32.6902 30.9823 32.9416 31.4131C36.5022 37.5166 43.111 41.3065 50.1884 41.3065C57.2657 41.3065 63.8745 37.5166 67.4352 31.4131C67.6865 30.9823 68.243 30.8347 68.6774 31.084C69.1118 31.3332 69.2607 31.885 69.0093 32.3158C65.1241 38.9735 57.9149 43.1095 50.1908 43.1095H50.1859Z" fill="#003087"/>
</g>
</svg>
